<?xml version="1.0" standalone="no"?>
<!DOCTYPE svg PUBLIC "-//W3C//DTD SVG 20010904//EN"
 "http://www.w3.org/TR/2001/REC-SVG-20010904/DTD/svg10.dtd">
<svg version="1.0" xmlns="http://www.w3.org/2000/svg"
 width="898.000000pt" height="71.000000pt" viewBox="0 0 898.000000 71.000000"
 preserveAspectRatio="xMidYMid meet">

<g transform="translate(0.000000,71.000000) scale(0.100000,-0.100000)"
fill="#000000" stroke="none">
<path d="M5170 580 l0 -111 -28 21 c-67 49 -192 32 -250 -35 -45 -50 -55 -93
-50 -210 3 -96 6 -107 33 -146 43 -61 83 -81 158 -82 63 0 111 16 136 47 19
23 29 20 33 -11 3 -28 4 -28 78 -28 l75 0 3 333 2 332 -95 0 -95 0 0 -110z
m-21 -226 c16 -21 21 -41 21 -91 0 -55 -4 -67 -25 -88 -29 -30 -64 -32 -96 -6
-21 17 -24 27 -24 94 0 60 4 79 19 96 28 31 79 28 105 -5z"/>
<path d="M7544 676 c-3 -7 -4 -35 -2 -62 l3 -49 93 -3 92 -3 0 66 0 65 -90 0
c-68 0 -92 -3 -96 -14z"/>
<path d="M5641 655 c-88 -25 -133 -55 -158 -105 -42 -82 -25 -173 41 -223 35
-28 150 -68 233 -81 81 -14 93 -68 17 -82 -57 -11 -107 7 -124 43 l-15 33 -92
0 -93 0 0 -33 c0 -18 10 -53 23 -77 18 -38 33 -51 89 -79 66 -33 71 -34 185
-33 128 0 165 9 223 59 80 67 93 191 27 261 -34 36 -72 53 -196 86 -123 33
-153 54 -117 82 20 14 82 19 111 8 9 -4 21 -17 26 -30 8 -23 13 -24 104 -24
92 0 95 1 95 23 -1 37 -36 103 -66 124 -79 54 -216 75 -313 48z"/>
<path d="M215 646 c-61 -27 -95 -85 -95 -162 0 -40 -2 -44 -24 -44 -15 0 -33
-11 -45 -26 -19 -24 -21 -40 -21 -186 0 -221 -15 -208 248 -208 264 0 246 -14
250 197 3 179 -3 201 -58 219 -34 11 -35 14 -40 70 -6 70 -29 108 -81 135 -44
22 -91 24 -134 5z m121 -80 c23 -19 28 -32 28 -72 l1 -49 -87 -3 -88 -3 0 40
c0 22 5 51 11 65 22 48 92 60 135 22z"/>
<path d="M620 335 l0 -316 103 3 102 3 3 103 3 102 100 0 c80 0 108 4 139 20
52 27 88 76 100 138 20 105 -20 201 -100 242 -35 18 -59 20 -245 20 l-205 0 0
-315z m339 131 c12 -26 12 -33 0 -55 -13 -23 -22 -26 -72 -29 l-57 -3 0 61 0
61 57 -3 c53 -3 59 -6 72 -32z"/>
<path d="M6185 580 l-19 -70 -38 0 -38 0 0 -65 0 -65 34 0 35 0 3 -149 c3
-141 4 -151 27 -175 32 -34 108 -49 192 -39 l64 8 3 57 3 58 -39 0 c-21 0 -43
5 -50 12 -8 8 -12 49 -12 120 l0 108 50 0 51 0 -3 63 -3 62 -47 3 -48 3 0 70
0 69 -73 0 -73 0 -19 -70z"/>
<path d="M7197 581 c-18 -69 -19 -70 -55 -73 l-37 -3 -3 -62 -3 -63 36 0 35 0
0 -137 c0 -154 7 -176 60 -207 29 -17 51 -21 122 -20 47 1 91 5 97 9 6 3 11
31 11 61 l0 54 -38 0 c-21 0 -43 5 -50 12 -8 8 -12 49 -12 120 l0 108 50 0 50
0 0 65 0 65 -50 0 -50 0 0 70 0 70 -73 0 -73 0 -17 -69z"/>
<path d="M1388 506 c-25 -7 -58 -20 -72 -30 -33 -21 -66 -73 -66 -103 0 -22 3
-23 90 -23 78 0 91 2 100 20 25 47 130 29 130 -24 0 -22 -4 -23 -101 -29 -161
-10 -229 -58 -229 -161 0 -100 49 -140 172 -140 62 0 86 5 125 26 l49 25 26
-22 c30 -26 113 -39 168 -27 34 8 35 9 38 64 3 55 2 57 -25 60 l-28 3 -6 131
c-5 140 -14 167 -64 200 -62 41 -212 56 -307 30z m182 -301 c0 -37 -42 -75
-83 -75 -39 0 -57 15 -57 47 0 29 46 52 103 53 33 0 37 -3 37 -25z"/>
<path d="M1982 502 c-71 -23 -109 -61 -117 -117 -16 -103 37 -154 189 -182
100 -18 127 -33 107 -57 -28 -34 -141 -14 -141 25 0 5 -38 9 -85 9 -80 0 -85
-1 -85 -21 0 -40 39 -87 96 -115 48 -24 68 -27 152 -27 169 0 247 52 247 165
0 46 -4 61 -25 83 -35 38 -65 51 -155 69 -127 26 -127 25 -123 43 7 36 100 35
114 -2 5 -12 25 -15 96 -15 l90 0 -6 28 c-11 44 -39 75 -91 101 -64 33 -186
39 -263 13z"/>
<path d="M2550 506 c-65 -18 -88 -33 -110 -69 -25 -40 -27 -123 -4 -155 27
-40 108 -72 216 -87 91 -12 99 -65 11 -65 -50 0 -83 14 -83 35 0 12 -17 15
-89 15 l-89 0 8 -36 c11 -47 41 -77 103 -105 72 -30 221 -32 287 -2 71 32 93
63 98 136 4 57 1 66 -22 94 -28 33 -78 54 -181 73 -86 16 -95 20 -95 35 0 34
85 39 111 6 15 -18 28 -21 98 -21 75 0 81 2 81 20 0 32 -26 75 -56 95 -64 42
-193 56 -284 31z"/>
<path d="M3980 501 c-82 -29 -134 -91 -149 -174 -19 -107 7 -199 71 -252 54
-46 94 -58 195 -58 81 0 99 4 145 27 108 55 153 178 113 312 -29 99 -114 155
-245 161 -56 3 -89 -1 -130 -16z m175 -136 c22 -21 25 -33 25 -100 0 -67 -3
-79 -25 -100 -30 -31 -83 -33 -116 -6 -22 18 -24 27 -24 106 0 79 2 88 24 106
33 27 86 25 116 -6z"/>
<path d="M4675 502 c-16 -10 -37 -27 -45 -37 -14 -17 -15 -16 -20 11 -5 29 -6
29 -83 32 l-77 3 0 -246 0 -245 95 0 95 0 0 130 c0 73 5 140 11 153 14 32 49
47 105 47 l45 0 -3 83 -3 82 -45 3 c-30 2 -55 -4 -75 -16z"/>
<path d="M6647 506 c-62 -17 -97 -43 -120 -89 -30 -59 -21 -67 76 -67 76 0 86
2 99 22 12 17 25 23 55 23 47 0 73 -18 73 -50 0 -21 -5 -22 -101 -28 -161 -10
-229 -59 -229 -165 0 -97 51 -136 173 -135 62 0 87 5 126 25 l47 25 26 -22
c30 -25 103 -37 163 -27 l40 7 3 57 c3 55 2 57 -25 60 l-28 3 -6 131 c-5 140
-14 167 -64 200 -63 41 -212 56 -308 30z m183 -305 c0 -37 -40 -71 -84 -71
-47 0 -61 15 -57 58 1 18 59 41 104 42 34 0 37 -2 37 -29z"/>
<path d="M7985 503 c-71 -21 -113 -57 -142 -121 -22 -47 -25 -64 -21 -133 6
-106 39 -161 121 -203 52 -27 67 -30 150 -29 98 0 152 18 205 67 62 56 84 200
47 294 -46 114 -209 171 -360 125z m165 -131 c42 -34 40 -173 -2 -212 -28 -26
-78 -26 -112 1 -24 19 -26 26 -26 105 0 71 3 87 20 104 26 26 89 27 120 2z"/>
<path d="M8705 504 c-22 -8 -51 -26 -66 -40 l-27 -25 -6 35 -7 36 -74 0 -75 0
0 -245 0 -246 93 3 92 3 5 163 c4 147 7 165 24 178 23 16 54 18 76 4 12 -7 16
-43 20 -177 l5 -168 93 -3 92 -3 0 188 c0 165 -3 193 -20 231 -33 72 -130 101
-225 66z"/>
<path d="M2933 498 c2 -7 27 -76 56 -153 28 -77 66 -180 84 -230 l34 -90 90
-3 90 -3 33 118 c18 65 36 124 39 131 4 7 23 -45 43 -115 l35 -128 90 -3 90
-3 23 63 c12 35 51 141 86 236 35 94 64 177 64 182 0 6 -35 10 -85 10 -100 0
-87 15 -131 -157 -16 -62 -31 -113 -34 -113 -3 0 -21 60 -40 133 l-35 132 -91
3 -91 3 -20 -73 c-12 -40 -29 -103 -39 -140 -21 -76 -24 -74 -50 42 -9 36 -22
89 -30 118 l-15 52 -101 0 c-76 0 -99 -3 -95 -12z"/>
<path d="M7544 497 c-2 -7 -3 -116 -2 -242 l3 -230 93 -3 92 -3 0 246 0 245
-90 0 c-64 0 -92 -4 -96 -13z"/>
</g>
</svg>
