<?xml version="1.0" standalone="no"?>
<!DOCTYPE svg PUBLIC "-//W3C//DTD SVG 20010904//EN"
 "http://www.w3.org/TR/2001/REC-SVG-20010904/DTD/svg10.dtd">
<svg version="1.0" xmlns="http://www.w3.org/2000/svg"
 width="300.000000pt" height="24.000000pt" viewBox="0 0 300.000000 24.000000"
 preserveAspectRatio="xMidYMid meet">
<metadata>
Created by potrace 1.10, written by Peter Selinger 2001-2011
</metadata>
<g transform="translate(0.000000,24.000000) scale(0.100000,-0.100000)"
fill="#000000" stroke="none">
<path d="M1730 195 c0 -32 -2 -34 -22 -26 -26 9 -46 5 -70 -17 -25 -21 -25
-103 0 -125 22 -20 73 -22 90 -5 9 9 12 9 12 0 0 -7 11 -12 25 -12 l25 0 0
110 0 110 -30 0 c-28 0 -30 -3 -30 -35z m30 -57 c0 -16 -3 -19 -11 -11 -6 6
-8 16 -5 22 11 17 16 13 16 -11z m-35 -48 c0 -28 -4 -35 -20 -35 -13 0 -21 8
-23 23 -5 34 5 54 25 50 13 -2 18 -13 18 -38z m32 -42 c-3 -8 -6 -5 -6 6 -1
11 2 17 5 13 3 -3 4 -12 1 -19z"/>
<path d="M2520 210 c0 -16 7 -20 30 -20 23 0 30 4 30 20 0 16 -7 20 -30 20
-23 0 -30 -4 -30 -20z"/>
<path d="M56 204 c-9 -8 -16 -24 -16 -34 0 -10 -7 -21 -15 -24 -13 -4 -15 -19
-13 -68 l3 -63 78 -3 c42 -2 77 1 78 5 7 68 2 117 -13 127 -10 6 -18 20 -18
31 0 43 -53 61 -84 29z m62 -31 c3 -20 -1 -23 -27 -23 -32 0 -36 6 -25 35 10
24 48 15 52 -12z m22 -95 l0 -38 -50 0 -50 0 0 38 0 38 50 0 50 -1 0 -37z"/>
<path d="M210 115 l0 -105 36 0 c36 0 37 0 31 35 l-6 35 43 0 c51 0 76 22 76
68 0 53 -28 72 -110 72 l-70 0 0 -105z m42 45 c-2 -17 0 -36 5 -43 6 -7 5 -25
-3 -47 -12 -34 -13 -32 -13 43 -1 42 3 77 7 77 5 0 7 -14 4 -30z m108 -15 c0
-13 -4 -26 -8 -29 -5 -3 -8 10 -8 29 1 37 16 37 16 0z m-36 10 c4 -10 -2 -19
-17 -24 -27 -11 -37 -5 -37 20 0 24 45 27 54 4z"/>
<path d="M1845 195 c-14 -13 -25 -30 -25 -37 0 -30 31 -56 80 -68 30 -7 49
-17 47 -24 -6 -17 -42 -19 -57 -1 -17 20 -70 20 -70 0 0 -8 9 -24 20 -35 17
-17 31 -20 82 -18 53 3 64 6 82 31 19 26 19 30 6 54 -10 17 -32 32 -62 42 -27
9 -48 21 -48 26 -1 16 33 19 44 4 15 -19 66 -22 66 -3 0 55 -119 76 -165 29z
m27 -40 c3 -14 1 -25 -3 -25 -5 0 -9 11 -9 25 0 14 2 25 4 25 2 0 6 -11 8 -25z
m111 -75 c3 -11 2 -22 -3 -25 -4 -3 -10 6 -12 20 -6 30 7 34 15 5z"/>
<path d="M2066 195 c-4 -14 -13 -25 -21 -25 -8 0 -15 -9 -15 -20 0 -11 7 -20
15 -20 10 0 15 -15 17 -57 l3 -58 43 -3 c37 -3 42 -1 42 17 0 12 -7 21 -15 21
-11 0 -15 11 -15 40 0 29 4 40 15 40 8 0 15 9 15 20 0 11 -7 20 -15 20 -9 0
-15 9 -15 25 0 20 -5 25 -24 25 -17 0 -26 -7 -30 -25z m37 -56 c-17 -17 -37
-1 -22 17 8 10 15 12 23 4 7 -7 7 -13 -1 -21z"/>
<path d="M2406 195 c-4 -14 -13 -25 -21 -25 -8 0 -15 -9 -15 -20 0 -11 7 -20
15 -20 10 0 15 -15 17 -57 l3 -58 43 -3 c37 -3 42 -1 42 17 0 12 -7 21 -15 21
-11 0 -15 11 -15 40 0 29 4 40 15 40 8 0 15 9 15 20 0 11 -7 20 -15 20 -9 0
-15 9 -15 25 0 20 -5 25 -24 25 -17 0 -26 -7 -30 -25z m34 -51 c0 -14 -12 -19
-23 -8 -9 9 4 35 14 28 5 -3 9 -12 9 -20z"/>
<path d="M474 170 c-40 -9 -54 -18 -54 -36 0 -17 51 -19 68 -2 10 10 16 9 28
-4 14 -14 12 -16 -30 -22 -55 -9 -85 -41 -67 -75 10 -17 21 -19 101 -19 71 0
90 3 90 14 0 8 -6 17 -14 20 -10 4 -13 15 -9 40 11 64 -36 99 -113 84z m54
-102 c-8 -22 -36 -34 -50 -20 -10 10 -10 15 2 22 21 14 52 12 48 -2z"/>
<path d="M680 172 c-49 -7 -77 -55 -47 -80 6 -5 31 -15 55 -21 23 -7 40 -16
37 -21 -8 -13 -42 -13 -50 0 -8 13 -55 13 -55 1 0 -23 34 -41 76 -41 61 0 84
14 84 51 0 31 -14 41 -72 53 -32 7 -38 26 -8 26 11 0 20 -4 20 -10 0 -5 14
-10 30 -10 17 0 30 3 30 8 -1 28 -52 51 -100 44z"/>
<path d="M849 166 c-28 -9 -35 -17 -37 -42 -3 -26 1 -33 25 -42 15 -6 37 -12
47 -14 11 -2 21 -9 24 -15 5 -16 -30 -17 -45 -2 -6 6 -23 9 -39 7 l-29 -3 23
-22 c27 -28 111 -32 136 -7 37 36 11 77 -55 88 -33 5 -40 9 -30 19 9 9 16 9
31 -1 22 -14 70 -16 70 -4 0 15 -34 39 -61 44 -15 3 -42 0 -60 -6z"/>
<path d="M1334 168 c-38 -10 -54 -33 -54 -80 0 -55 27 -78 89 -78 42 0 53 4
70 26 57 73 -11 157 -105 132z m61 -78 c0 -31 -3 -35 -25 -35 -19 0 -26 6 -28
23 -5 36 5 54 30 50 19 -2 23 -9 23 -38z"/>
<path d="M1562 164 c-12 -8 -22 -10 -22 -5 0 6 -11 11 -25 11 -25 0 -25 -1
-25 -80 l0 -80 29 0 c29 0 30 2 33 53 3 45 6 52 26 55 14 2 22 10 22 23 0 10
0 22 1 26 1 14 -17 13 -39 -3z"/>
<path d="M2670 166 c-58 -19 -76 -91 -33 -138 23 -26 106 -25 133 2 23 23 27
86 8 113 -19 26 -68 36 -108 23z m60 -77 c0 -38 -1 -40 -27 -37 -47 5 -45 78
2 78 23 0 25 -4 25 -41z"/>
<path d="M2904 164 c-19 -10 -30 -12 -32 -5 -2 6 -15 11 -28 11 -23 0 -24 -2
-24 -80 l0 -80 33 0 32 0 -3 47 c-3 54 8 79 32 70 12 -5 16 -20 16 -62 0 -54
0 -55 30 -55 l30 0 0 63 c0 88 -30 120 -86 91z"/>
<path d="M980 167 c0 -1 13 -36 29 -77 26 -68 31 -75 58 -78 28 -3 31 0 43 45
l13 48 11 -45 c11 -40 15 -45 42 -48 30 -3 32 -1 62 78 l30 81 -31 -3 c-30 -3
-33 -7 -43 -53 -11 -52 -15 -49 -29 23 -6 28 -10 32 -40 32 -32 0 -34 -2 -41
-45 -3 -25 -10 -45 -14 -45 -4 0 -11 20 -14 45 -7 43 -9 45 -42 45 -19 0 -34
-1 -34 -3z m100 -113 c0 -8 -19 -13 -24 -6 -3 5 1 9 9 9 8 0 15 -2 15 -3z"/>
<path d="M2188 148 l-23 -23 33 -3 c18 -2 40 2 47 8 15 12 35 6 35 -11 0 -5
-6 -9 -12 -9 -7 0 -30 -5 -50 -11 -42 -11 -60 -47 -38 -74 14 -17 81 -20 97
-4 8 8 13 8 17 0 4 -6 20 -11 37 -11 22 0 29 5 29 20 0 11 -4 20 -10 20 -5 0
-10 22 -10 50 0 58 -14 70 -84 70 -34 0 -52 -6 -68 -22z m92 -83 c0 -21 -28
-31 -43 -16 -9 9 -8 14 3 21 22 14 40 12 40 -5z"/>
<path d="M2520 90 l0 -80 30 0 30 0 0 80 0 80 -30 0 -30 0 0 -80z"/>
</g>
</svg>
